<svg width="47.99999999999999" height="47.99999999999999" xmlns="http://www.w3.org/2000/svg">

 <g>
  <title>background</title>
  <rect fill="none" id="canvas_background" height="402" width="582" y="-1" x="-1"/>
 </g>
 <g>
  <title>Layer 1</title>
  <path stroke="null" id="svg_2" d="m47.967516,9.297185l-11.013075,-9.12711l-3.079826,3.622433l11.013075,9.12711l3.079826,-3.622433zm-33.842136,-5.516515l-3.079826,-3.622433l-11.013075,9.12711l3.079826,3.622433l11.013075,-9.12711zm9.862634,1.444238c-11.92384,0 -21.558783,9.54144 -21.558783,21.308427s9.634942,21.308427 21.558783,21.308427s21.58275,-9.54144 21.58275,-21.308427s-9.65891,-21.308427 -21.58275,-21.308427zm0.011984,37.881648c-9.263446,0 -16.777263,-7.422435 -16.777263,-16.573221s7.513817,-16.573221 16.777263,-16.573221s16.777263,7.422435 16.777263,16.573221s-7.501833,16.573221 -16.777263,16.573221zm-3.511241,-12.962627l-5.081114,-5.019318l-2.540557,2.509659l7.621671,7.528978l14.392495,-14.217456l-2.540557,-2.509659l-11.851938,11.707797z"/>
 </g>
</svg>