<svg width="50" height="50" xmlns="http://www.w3.org/2000/svg">

 <g>
  <title>background</title>
  <rect fill="none" id="canvas_background" height="402" width="582" y="-1" x="-1"/>
 </g>
 <g>
  <title>Layer 1</title>
  <circle id="svg_1" stroke-width="2" stroke-miterlimit="10" stroke-linecap="round" stroke="#000000" r="24" fill="none" cy="25" cx="25"/>
  <rect id="svg_2" width="50" height="50" fill="none"/>
  <path id="svg_3" d="m23.779,16.241c-0.216,0 -0.357,-0.144 -0.357,-0.359l0,-2.618c0,-0.215 0.142,-0.359 0.357,-0.359l2.439,0c0.215,0 0.359,0.144 0.359,0.359l0,2.618c0,0.215 -0.145,0.359 -0.359,0.359l-2.439,0zm0.073,21.052c-0.215,0 -0.358,-0.143 -0.358,-0.358l0,-16.462c0,-0.215 0.144,-0.359 0.358,-0.359l2.295,0c0.216,0 0.359,0.144 0.359,0.359l0,16.462c0,0.216 -0.144,0.358 -0.359,0.358l-2.295,0z"/>
 </g>
</svg>